<svg width="24" height="32" viewBox="0 0 24 32" fill="none" xmlns="http://www.w3.org/2000/svg">
<path fill-rule="evenodd" clip-rule="evenodd" d="M12.9938 3.68091C16.5059 4.07644 19.9398 6.46449 20.9452 9.79011C21.7146 12.3352 21.614 14.0408 21.5123 15.766C21.4168 17.3835 21.3204 19.0185 21.9391 21.3789C22.3196 22.8306 22.9851 24.738 23.4405 25.9897C23.6704 26.6218 23.2039 27.2966 22.5314 27.2966H9.27924C9.29271 27.3329 9.30689 27.369 9.32184 27.4047C9.46679 27.752 9.67944 28.0681 9.94811 28.3346C10.2168 28.6013 10.5362 28.8132 10.8884 28.958C11.2406 29.1027 11.6183 29.1773 12 29.1773C12.3816 29.1773 12.7593 29.1027 13.1115 28.958C13.6622 28.7316 14.2922 28.9946 14.5185 29.5453C14.7449 30.0961 14.4819 30.726 13.9312 30.9524C13.3187 31.2042 12.6624 31.3337 12 31.3337C11.3374 31.3337 10.6812 31.2042 10.0687 30.9524C9.45611 30.7006 8.89898 30.3314 8.42935 29.8653C7.95967 29.3992 7.58664 28.8455 7.33201 28.2354C7.20527 27.9319 7.10915 27.6174 7.04451 27.2966H1.46849C0.795889 27.2966 0.329423 26.6218 0.559367 25.9897C1.0147 24.738 1.68025 22.8306 2.06073 21.3789C2.68066 19.0138 2.58261 17.3191 2.48701 15.6668C2.38544 13.9112 2.28663 12.2035 3.05465 9.79011C4.09047 6.53521 7.4035 4.13911 10.8376 3.69667V1.74515C10.8376 1.1497 11.3203 0.666992 11.9157 0.666992C12.5111 0.666992 12.9938 1.1497 12.9938 1.74515V3.68091ZM20.8525 25.1403C20.4937 24.0956 20.1145 22.922 19.8533 21.9257C19.1471 19.2312 19.2607 17.3119 19.3584 15.6614L19.3692 15.4786C19.4618 13.8938 19.5168 12.5165 18.8812 10.4142C18.0866 7.78593 14.9246 5.70187 11.8065 5.78146C8.84593 5.85702 5.91928 7.89902 5.10935 10.444C4.48663 12.4008 4.53712 13.7569 4.63079 15.3885L4.64127 15.5695C4.73874 17.2473 4.85377 19.2274 4.14652 21.9257C3.88536 22.922 3.50618 24.0956 3.14735 25.1403H20.8525Z" fill="black"/>
</svg>
